<svg xmlns="http://www.w3.org/2000/svg" xmlns:xlink="http://www.w3.org/1999/xlink" version="1.0" id="Layer_1" x="0px" y="0px" viewBox="0 0 904.6 713.9" style="enable-background:new 0 0 904.6 713.9;" xml:space="preserve">
<style type="text/css">
	.st0{fill:#604394;}
	.st1{fill:#FFD300;}
</style>
    <g>
	<path class="st0" d="M212.7,317.9C212.5,187.3,317.4,81.6,446.2,78.5c71.7-1.7,134.7,27.6,177.8,72.4   c45.7,47.5,68.6,104.6,67.9,170.5c-1.4,131-108.9,237.3-241.4,236.4C318.4,556.8,212.2,449,212.7,317.9z"/>
        <path class="st0" d="M332.2,564.8c3.2,1.1,6.3,2.2,9.5,3.3c-0.2,1.2-0.3,2.2-0.5,3.5c0.8-0.1,1.5-0.2,2.2-0.3   c3.4-0.7,6.7-0.9,10.1,0.1c3.7,1.1,6.4,3.5,8.4,6.7c1,1.6,0.9,1.9,3.2,1.4c3.7-0.8,7.6-1,11.3-0.1c4.5,1.1,8.4,3.2,10.7,7.5   c1.8,3.4,2,7.1,1.2,10.7c-0.7,3-1.6,5.9-2.6,8.8c-0.8,2.7-1.8,5.3-2.7,7.9c-0.9,2.7-0.6,3.6,1.5,5.3c0.4,0.3,0.7,0.6,1.1,1   c-0.3,0.5-0.5,0.9-0.8,1.2c-1.2,1.5-2.5,3.1-3.7,4.6c-1.6,1.9-1.8,2-3.8,0.7c-4.1-2.5-6.6-6.1-6.3-11.1c0.1-1.1,0.4-2.1,0.7-3.2   c1.6-4.9,3.4-9.8,5-14.7c0.5-1.4,0.7-3.1,0.5-4.6c-0.3-3.1-2.6-5.2-5.7-5.4c-2.1-0.2-4.2,0-6.2,0.8c-1.2,0.5-2,1.2-2.5,2.4   c-1.9,5.5-3.8,10.9-5.7,16.4c-1,2.8-1.9,5.7-2.9,8.5c-0.2,0.6-0.5,1.1-0.8,1.9c-3.5-1.2-6.8-2.4-10.3-3.6c0.3-0.9,0.5-1.6,0.7-2.3   c2.5-7.3,5.1-14.5,7.5-21.8c0.5-1.5,0.9-3,0.9-4.6c0.1-3.9-3.1-6.8-7-6.4c-1.7,0.2-3.4,0.8-5.1,1.3c-1.4,0.4-2.1,1.3-2.6,2.6   c-2.7,7.9-5.4,15.8-8.2,23.7c-0.3,0.8-0.6,1.5-1,2.4c-3.2-1.1-6.3-2.2-9.4-3.3c-0.9-0.3-0.9-0.9-0.7-1.6c0.3-0.8,0.6-1.5,0.8-2.3   c4.2-12,8.3-24,12.5-36.1C331.6,566,331.9,565.6,332.2,564.8z"/>
        <path class="st0" d="M271.6,496.6c2.9,2.5,5.5,4.8,8.3,7.3c-4.2,5.2-8.6,10-13,15.2c0.8,0.4,1.5,0.7,2.1,1   c5.7,2.6,9.9,6.7,12.1,12.6c2.4,6.5,1.7,12.9-1.9,18.8c-3.7,6.1-9,10.4-16.2,11.6c-4.7,0.8-9.2-0.2-13.4-2.4   c-3.6-1.8-6.5-4.5-9.1-7.4c-2.8-3.1-4.9-6.7-6.7-10.5c-0.6-1.3-0.5-2.3,0.5-3.5c7.3-8.3,14.6-16.7,21.8-25.1   c4.6-5.3,9.3-10.7,13.9-16C270.4,497.8,270.9,497.3,271.6,496.6z M271.5,539.5c0.2-5.7-5-11.5-10.7-12c-0.9-0.1-1.5,0.3-2.1,1   c-4,4.7-8.1,9.3-12.2,14c-0.8,0.9-0.8,1.6-0.2,2.5c1.7,2.4,3.7,4.6,6.2,6c2,1.1,4.1,1.8,6.4,1.7   C265.7,552.2,271.3,546.1,271.5,539.5z"/>
        <path class="st0" d="M643.8,511.6c2.6,1.7,5.3,3.5,8.2,5.4c-0.5,0.9-0.9,1.6-1.3,2.3c-1.6,2.6-2.3,5.5-2.1,8.6   c0.1,1.8,0.1,3.5,0.1,5.3c0,1.5,0.1,1.6,1.5,2c3.1,0.8,6.2,1.5,9.3,2.2c5.5,1.2,11,2.5,16.5,3.7c0.2,0.1,0.5,0.2,0.9,0.5   c-0.6,0.6-1,1.1-1.5,1.5c-2.5,2.1-5,4.3-7.4,6.4c-0.9,0.8-1.7,0.9-2.8,0.6c-6.2-1.7-12.3-3.3-18.5-4.9c-0.9-0.2-1.7-0.5-2.3,0.6   c-0.6,1.1-0.6,1.6,0.3,2.7c2.9,3.4,5.9,6.8,8.8,10.2c0.5,0.6,0.9,1.1,1.6,1.9c-2.8,2.4-5.5,4.8-8.4,7.3   c-13.8-15.9-27.4-31.6-41.2-47.5c2.8-2.5,5.5-4.8,8.3-7.2c4,4.2,7.5,8.5,11.2,12.8c3.7,4.2,7.3,8.4,11.1,12.7   c0.4-0.7,0.8-1,0.9-1.4c0.4-2.2,0.8-4.4,1-6.6c0.2-2.6,0.1-5.2,0.3-7.7c0.3-4.1,2.1-7.6,4.6-10.7   C643.3,511.9,643.5,511.8,643.8,511.6z"/>
        <path class="st0" d="M599.6,547.4c3.2-2,6.2-3.8,9.4-5.7c0.5,0.8,1,1.4,1.4,2c4.7,7.8,9.3,15.5,14,23.3c0.1,0.2,0.3,0.5,0.4,0.7   c1.3,2.2,2.4,2.7,4.9,2.2c0.3-0.1,0.5-0.2,0.8-0.2c0.2,0,0.4,0,0.8,0c0.2,0.8,0.5,1.6,0.6,2.5c0.4,1.9,0.7,3.8,1.1,5.6   c0.3,1.1-0.1,1.7-1,2.1c-1.8,0.8-3.6,1.4-5.5,1.1c-2.8-0.4-4.4,0.7-5.9,3c-2.8,4.3-6.7,7.4-11.5,9.4c-7.3,3-13.7,1.5-18.6-4.6   c-0.9-1.2-1.8-2.4-2.5-3.7c-4.1-6.9-8.3-13.8-12.4-20.7c-0.3-0.5-0.6-1.1-1-1.8c3.2-1.9,6.2-3.8,9.5-5.7c0.5,0.7,0.9,1.3,1.3,1.9   c4,6.6,8,13.3,12,19.9c0.6,0.9,1.1,1.9,1.8,2.8c1.8,2.5,4.6,3.1,7.4,1.9c4-1.7,6.6-4.9,8.6-8.7c0.5-1,0-1.7-0.5-2.4   c-3.7-6.1-7.3-12.3-11-18.4C602.2,551.9,601,549.8,599.6,547.4z"/>
        <path class="st0" d="M505.1,586.2c3.6-1,7-2,10.6-3c0.3,0.8,0.6,1.4,0.7,2.1c2.1,7.4,4.1,14.8,6.2,22.2c0.4,1.3,0.7,2.6,1.3,3.9   c1.2,2.6,3.2,3.7,6.1,3.5c3.5-0.3,6.3-2,8.9-4.2c2.8-2.4,2.8-2.5,1.8-6.1c-2.3-8.3-4.7-16.6-7-24.9c-0.1-0.3-0.1-0.7-0.2-1.2   c3.4-1.3,6.8-2.1,10.4-3c0.4,1.1,0.7,1.9,0.9,2.8c2.4,8.6,4.8,17.3,7.2,25.9c0.8,2.9,1.5,3.5,4.5,3.7c0.4,0,0.8,0.1,1.3,0.2   c0.1,0.5,0.2,1,0.1,1.5c-0.1,2.2-0.3,4.3-0.5,6.5c-0.1,1.7-0.4,2-2.1,2.1c-2.3,0.2-4.5,0-6.6-0.9c-1.4-0.6-2.4-0.4-3.6,0.7   c-4,3.6-8.7,6.2-14.1,6.9c-2.3,0.3-4.7,0.4-6.9,0c-6.1-1.1-9.6-5.3-11.5-11c-0.8-2.4-1.4-5-2.1-7.4c-1.7-6.2-3.4-12.3-5.2-18.5   C505.3,587.6,505.2,587.1,505.1,586.2z"/>
        <path class="st0" d="M442.3,626.8c-1.4,2.8-2.7,5.4-4,8c-0.4,0.9-1.3,0.8-2,0.5c-1.8-0.9-3.6-1.8-5.4-2.8c-0.5-0.3-0.9-0.7-1.2-1.1   c-0.8-0.9-1.6-0.9-2.7-0.5c-5.9,2.2-11.9,2.6-18,0.8c-6.9-2.1-10.9-7.4-10.9-14.5c0-3.2,0.5-6.4,0.8-9.5c0.7-6.2,1.4-12.3,2-18.5   c0.1-0.7,0.2-1.5,0.4-2.5c3.7,0.2,7.2,0.7,10.9,1.1c0,0.9,0.1,1.6,0,2.3c-0.9,7.8-1.8,15.7-2.7,23.5c-0.1,0.9-0.2,1.8-0.2,2.6   c0,3.3,1.6,5.4,4.8,6.2c2.7,0.7,5.4,0.5,8.1-0.2c0.5-0.1,0.9-0.3,1.4-0.4c3.6-1.3,3.6-1.3,4-5.2c0.7-6.3,1.4-12.6,2.1-18.9   c0.2-2,0.4-4.1,0.6-6.1c0.1-0.6,0.2-1.2,0.3-1.8c0.8,0,1.4-0.1,2,0c2.4,0.2,4.9,0.5,7.3,0.8c1.4,0.2,1.6,0.4,1.5,1.8   c-0.7,6.8-1.5,13.7-2.3,20.5c-0.3,2.9-0.7,5.8-1,8.7c-0.2,1.6,0.5,2.8,1.8,3.6C440.5,625.9,441.2,626.2,442.3,626.8z"/>
        <path class="st0" d="M455.5,600.9c-1.5,0-2.9,0-4.4,0c-1.5,0-1.6-0.1-1.7-1.6c-0.1-2.7-0.2-5.4-0.4-8.4c1.6-0.1,3-0.1,4.4-0.2   c1.6-0.1,1.7-0.2,1.7-1.8c0-1.3-0.1-2.6-0.1-3.9c0-0.8,0.2-1.4,1-1.8c3-1.5,6.1-3,9.1-4.6c0.1-0.1,0.3,0,0.7,0   c0.4,3.6,0.4,7.3,0.7,11.2c3.3,0.5,6.6-0.3,10.1,0.1c0.8,3.1,0.3,6.3,0.6,9.6c-2.2,0.2-4.2,0.3-6.2,0.5c-0.4,0-0.8,0-1.2,0   c-2.9,0.1-3,0.2-2.9,3c0.1,2.3,0.2,4.6,0.3,6.9c0.1,2.9,0.3,5.8,0.4,8.8c0,0.5,0,1,0.1,1.4c0.5,3.1,1.8,4.3,5,4.1   c1.6-0.1,3.1-0.4,4.6-0.6c0.4-0.1,0.8-0.1,1.4-0.1c0,1.2,0,2.2,0,3.3c-0.1,1.8-0.2,3.5-0.4,5.3c0,0.7-0.1,1.4-1,1.5   c-3.4,0.6-6.9,1.2-10.3,0.6c-5.7-0.9-9.1-4.1-10-10c-0.5-3.5-0.6-7.2-0.8-10.8c-0.2-3.9-0.4-7.7-0.5-11.6   C455.8,601.7,455.6,601.5,455.5,600.9z"/>
        <path class="st0" d="M582.5,597.1c0.1,0.2,0.3,0.5,0.3,0.7c0.2,2.6,0.3,5.2,0.5,7.7c0.1,0.9-0.3,1.4-1.1,1.7   c-5.4,1.6-12.5,0.2-15.2-6.3c-6.4-15.4-13.1-30.6-19.7-45.9c-0.2-0.5-0.4-1-0.6-1.7c0.6-0.3,1.1-0.6,1.6-0.9c2.2-1,4.5-1.9,6.8-2.9   c1.7-0.7,1.8-0.7,2.6,1c2.6,6.1,5.2,12.1,7.8,18.2c3.5,8.2,7.1,16.5,10.6,24.7c1.5,3.5,2.1,3.9,5.8,3.5   C582.1,597,582.3,597,582.5,597.1z"/>
        <path class="st0" d="M503.7,621.6c0,0.5,0.1,0.9,0,1.3c-0.5,2.3-1.1,4.6-1.5,7c-0.2,1-0.6,1.4-1.6,1.4c-3.1,0.1-5.9-0.7-8.5-2.4   c-2.5-1.7-3.9-4.1-4.3-7.1c-0.7-4.9-1.3-9.7-2-14.6c-1.4-10.4-2.9-20.8-4.3-31.1c-0.3-1.9-0.5-3.9-0.8-6.1c1.4-0.3,2.7-0.6,4-0.7   c1.8-0.3,3.6-0.5,5.5-0.7c1.3-0.2,1.5-0.1,1.7,1.3c0.8,5.7,1.6,11.3,2.4,17c0.9,6.3,1.7,12.7,2.6,19c0.5,3.4,1,6.9,1.4,10.3   C498.9,620.3,499.4,620.8,503.7,621.6z"/>
        <path class="st0" d="M292.7,581.4c-1.2,0.9-2.2,1.7-3.2,2.4c-1,0.7-2,1.5-3,2.2c-1.9,1.4-2,1.4-3.7-0.3c-1.9-1.9-3.3-4.2-3.9-6.8   c-0.7-2.9-0.1-5.7,1.5-8.2c3.4-5.2,6.9-10.5,10.3-15.7c2.2-3.4,4.4-6.7,6.6-10.1c0.4-0.6,0.7-1.1,1.2-1.8c3.2,2.1,6.1,4,9.3,6   c-0.4,0.7-0.7,1.3-1,1.8c-5.1,7.7-10.1,15.5-15.2,23.2c-1.8,2.8-1.8,3.7,0.4,6.3C292.2,580.7,292.3,580.9,292.7,581.4z"/>
        <path class="st0" d="M309.5,529.9c3.6,0,6.3,2.8,6.2,6.4c0,3.4-2.9,6.2-6.3,6.2c-3.5,0-6.4-3-6.3-6.4   C303.3,532.6,306.1,529.9,309.5,529.9z"/>
        <path class="st1" d="M337.5,346.7c0.1,0.7,0.2,1.2,0.2,1.7c0,3.3,0.2,6.5,0,9.8c-0.2,2.6-0.5,5.2-1.3,7.6c-1.8,6.1-6,9.6-12.3,10.4   c-3.7,0.5-7.5,0.3-11.1-0.9c-2.9-1-5.8-2.4-8.6-3.6c-1.4-0.6-2.7-1.4-4.1-1.8c-4.5-1.3-8.5-0.1-11.1,3.3c-1.3,1.7-2.1,3.6-3.1,5.5   c-0.7,1.3-0.3,2.4,0.7,3.3c1.6,1.4,3.1,3.1,4.9,4.3c12.8,8.7,26.9,11.4,42,7.9c7.5-1.8,13.7-5.6,18.3-11.8   c3.3-4.3,5.3-9.2,6.6-14.4c1.6-6.1,1.9-12.2,1.9-18.4c0-12.2,0-24.5-0.2-36.7c-0.1-7.8-1.6-15.4-5-22.5c-4-8.2-10.2-14-19-16.9   c-9.3-3-18.7-3.1-28.1-0.5c-8.3,2.3-15,7-19.9,14.1c-5.4,7.9-7.3,16.8-7.2,26.1c0.1,6.7,1.5,13.2,4.4,19.4   c3.8,7.9,9.5,13.9,17.6,17.4c4.9,2.1,10,2.8,15.4,2.6c6.4-0.2,12.4-1.8,17.7-5.3C336.6,347.1,337,346.9,337.5,346.7z M395.2,323.8   c0.4-0.2,0.5-0.3,0.6-0.3c1.1,0.1,2.1,0.3,3.2,0.5c9,1,17.9,1.4,26.9,0.1c4.8-0.7,9.5-2,13.6-4.6c4-2.5,7.1-6,8.6-10.6   c1.6-4.8,1.7-9.8,0.6-14.7c-1.9-8.7-7-14.8-14.9-18.6c-10.2-5-20.9-5.8-31.8-2.7c-11.6,3.3-19.8,10.6-24.7,21.5   c-5.4,11.9-6.1,24.4-3,36.9c4.2,16.9,16.6,27.4,34.3,29c11.9,1.1,22.8-2.2,32.8-8.4c1.8-1.1,3.4-2.7,5.1-4.1c0.8-0.7,1-1.5,0.6-2.6   c-0.9-2.3-1.9-4.5-3.6-6.3c-2.3-2.4-5-3.5-8.3-2.8c-2,0.4-3.9,1.1-5.8,1.8c-2.1,0.7-4.2,1.7-6.3,2.3c-6.6,1.8-13.2,1.9-19.5-1.4   C397.6,335.7,395.4,330.3,395.2,323.8z M485.4,241.5c-0.8-0.1-1.5-0.2-2.1-0.1c-2.9,0.4-5.8,0.7-8.6,1.4c-4.8,1.4-8.7,4-10.5,8.9   c-0.8,2.1-1.4,4.4-1.6,6.7c-0.3,4.1-0.3,8.2-0.4,12.2c-0.1,16.7-0.1,33.5-0.1,50.2c0,6.4,0.8,12.6,2.9,18.7c1.8,5,4.3,9.6,8.3,13.1   c8.5,7.5,18.6,9.3,29.4,6.9c4.6-1,8.3-3.7,10.4-8.2c1.6-3.6,1.5-7.2,0.4-10.9c-0.5,0-0.8-0.1-1.2,0c-3.3,0.8-6.6,1.1-9.9,1.1   c-7.5,0-14.3-5.4-16-12.7c-0.9-3.7-1.3-7.5-1.3-11.3c0-8.6,0.1-17.1,0.1-25.7c0-0.6,0.1-1.3,0.2-2.1c0.9,0,1.7,0,2.4,0   c2.6-0.1,5.3,0,7.9-0.3c9.3-1.1,14-8.4,14.4-16.8c0-0.9-0.4-1.4-1.3-1.4c-0.7,0-1.4,0-2,0c-6.5,0-13.1,0-19.6,0c-1.7,0-2-0.1-2-1.6   c0-8,0.1-15.9,0.2-23.9C485.2,244.4,485.3,243,485.4,241.5z M596.1,359.5c0-0.7,0-1.2,0-1.8c-0.2-4.3-0.5-8.7-0.6-13   c-0.1-11.7-0.1-23.4,0-35.1c0-2.6,0.3-5.3,0.9-7.9c1-4.1,3.5-7.1,7.5-8.5c2-0.7,4.2-0.9,6.3-1.4c2.3-0.5,4.7-0.9,6.9-1.7   c3.3-1.3,5.5-3.8,6-7.4c0.4-2.7,0.1-5.4-0.6-8.1c-0.3-1-0.8-1.5-1.9-1.5c-7.4-0.1-14.7,0-21.9,1.6c-8.8,2-15.8,6.7-20.5,14.6   c-4,6.7-5.5,14-5.6,21.7c-0.1,9.4-0.1,18.8,0,28.2c0,2.3,0.2,4.6,0.5,6.9c1,7.2,4.6,11.1,11.6,12.7   C588.5,359.6,592.1,359.6,596.1,359.5z M562.4,342.1c-1.9,0.2-3.6,0.5-5.3,0.5c-3.9,0-6.8-2.2-7.7-6c-0.3-1.2-0.4-2.6-0.4-3.8   c0-14.5-0.1-29,0-43.5c0-5,0.4-9.9,0.6-14.9c0-0.4-0.1-0.9-0.1-1.5c-4.9,0.1-9.6,0.6-14,2.8c-4.2,2-6.9,5.3-8.1,9.7   c-0.6,2.3-1,4.7-1.1,7c-0.2,4.5-0.1,9-0.1,13.5c0,9.9-0.1,19.7-0.1,29.6c0,2.4,0.1,4.9,0.6,7.3c2.8,15.6,17.1,20.4,29,16.1   c4.7-1.7,7.4-5.2,7.5-10.4c0-1.6-0.1-3.3-0.2-4.9C562.8,343.2,562.5,342.7,562.4,342.1z M550.3,252.8c-0.2-4.5-1.7-8.2-5.9-10.5   c-4.4-2.4-8.7-2.2-12.7,0.6c-4.7,3.3-6.5,7.9-5.7,13.5c0.9,5.7,5.9,10.3,12.9,9.5C546.1,265.1,550.5,258.3,550.3,252.8z    M338.1,310.1c-0.2,4.6-0.4,8-1.4,11.3c-2.7,8.7-9.7,12-17.9,11c-8-1-13-6.4-14.4-14.5c-0.9-5-0.6-9.9,0.9-14.7   c0.6-2,1.5-4,2.7-5.7c4.6-7.1,14.6-9.4,21.9-5.1c4,2.3,6.1,6,7.1,10.3C337.6,305.5,337.9,308.4,338.1,310.1z M411.9,309.8   c-4.6,0-9.1-0.2-13.6-1.2c-0.4-0.1-0.8-0.2-1.2-0.3c-1.1-0.2-1.4-0.9-1.2-1.9c0.5-3.8,1.9-7.2,4.6-10.1c4.1-4.5,9.3-6.2,15.2-6   c2.3,0.1,4.5,0.5,6.5,1.4c2.1,0.9,3.8,2.1,5.1,3.9c2.8,3.8,2,8.8-1.9,11.5c-2.4,1.7-5.2,2.4-8,2.6   C415.6,309.9,413.7,309.8,411.9,309.8z"/>
</g>
</svg>
